# xmcd
#
# Track frame offsets: 
#        150
#        7107
#        34837
#        64947
#        99520
#        119110
#        160877
#        185047
#        211665
#        251062
#        298850
#
# Disc length: 4267 seconds
#
# Revision: 2
# Processed by: cddbd v1.5.2PL0 Copyright (c) Steve Scherf et al.
# Submitted via: ExactAudioCopy v1.3
#
DISCID=a810a90b
DTITLE=Nova Drive - Headlong
DYEAR=2001
DGENRE=Rock
TTITLE0=River I
TTITLE1=Alone
TTITLE2=Spoon
TTITLE3=Free
TTITLE4=Rain
TTITLE5=River II
TTITLE6=Time
TTITLE7=Small
TTITLE8=Monroe
TTITLE9=Dive
TTITLE10=Dropout
EXTD=
EXTT0=
EXTT1=
EXTT2=
EXTT3=
EXTT4=
EXTT5=
EXTT6=
EXTT7=
EXTT8=
EXTT9=
EXTT10=
PLAYORDER=
